<svg width="165" height="40" viewBox="0 0 165 40" fill="none" xmlns="http://www.w3.org/2000/svg">
<g clip-path="url(#clip0_149_2003)">
<path fill-rule="evenodd" clip-rule="evenodd" d="M20.8002 15.1994V4.58507H20.7998C20.7998 4.26179 20.538 4 20.2147 4H10.2327C9.82731 4 9.43872 4.16092 9.15243 4.44721L0.447198 13.1526C0.160914 13.4394 0 13.828 0 14.2329V30.6153C0 30.9386 0.261786 31.2003 0.585056 31.2003H4.7998V35.4149C4.7998 35.7382 5.06159 36 5.38486 36H21.7669C22.1723 36 22.5609 35.8391 22.8472 35.5528L31.5524 26.8474C31.8392 26.5606 32.0001 26.172 32.0001 25.7671V15.7849V15.7844C32.0001 15.4612 31.7383 15.1994 31.4151 15.1994H20.8002ZM20.8 15.1999H5.80733C5.25109 15.1999 4.80006 15.6509 4.80006 16.2072V31.1998H19.7927C20.3489 31.1998 20.8 30.7488 20.8 30.1926V15.1999Z" fill="black"/>
<path d="M41.9815 33V6.81818H48.3097V27.8608H59.2017V33H41.9815ZM66.5731 33.3324C65.3203 33.3324 64.2081 33.1236 63.2365 32.706C62.2734 32.2798 61.5106 31.6406 60.9481 30.7884C60.3942 29.9276 60.1172 28.8494 60.1172 27.554C60.1172 26.4631 60.3089 25.5426 60.6925 24.7926C61.076 24.0426 61.6044 23.4332 62.2777 22.9645C62.951 22.4957 63.7265 22.142 64.6044 21.9034C65.4822 21.6562 66.4197 21.4901 67.4169 21.4048C68.5334 21.3026 69.4325 21.196 70.1143 21.0852C70.7962 20.9659 71.2905 20.7997 71.5973 20.5866C71.9126 20.3651 72.0703 20.054 72.0703 19.6534V19.5895C72.0703 18.9332 71.8444 18.4261 71.3927 18.0682C70.941 17.7102 70.3317 17.5312 69.5646 17.5312C68.7379 17.5312 68.0731 17.7102 67.5703 18.0682C67.0675 18.4261 66.7479 18.9205 66.6115 19.5511L60.8459 19.3466C61.0163 18.1534 61.4552 17.0881 62.1626 16.1506C62.8785 15.2045 63.8587 14.4631 65.103 13.9261C66.3558 13.3807 67.8601 13.108 69.6158 13.108C70.8686 13.108 72.0234 13.2571 73.0802 13.5554C74.1371 13.8452 75.0575 14.2713 75.8416 14.8338C76.6257 15.3878 77.2308 16.0696 77.6569 16.8793C78.0916 17.6889 78.3089 18.6136 78.3089 19.6534V33H72.4283V30.2642H72.2748C71.9254 30.929 71.478 31.4915 70.9325 31.9517C70.3956 32.4119 69.7606 32.7571 69.0277 32.9872C68.3033 33.2173 67.4851 33.3324 66.5731 33.3324ZM68.5035 29.2415C69.1768 29.2415 69.7819 29.1051 70.3189 28.8324C70.8643 28.5597 71.299 28.1847 71.6229 27.7074C71.9467 27.2216 72.1087 26.6591 72.1087 26.0199V24.1534C71.9297 24.2472 71.7123 24.3324 71.4567 24.4091C71.2095 24.4858 70.9368 24.5582 70.6385 24.6264C70.3402 24.6946 70.0334 24.7543 69.718 24.8054C69.4027 24.8565 69.1001 24.9034 68.8104 24.946C68.2223 25.0398 67.7194 25.1847 67.3018 25.3807C66.8927 25.5767 66.5774 25.8324 66.3558 26.1477C66.1427 26.4545 66.0362 26.821 66.0362 27.2472C66.0362 27.8949 66.2663 28.3892 66.7265 28.7301C67.1953 29.071 67.7876 29.2415 68.5035 29.2415ZM93.3604 24.5241V13.3636H99.599V33H93.6417V29.3438H93.4371C93.0025 30.5455 92.261 31.5 91.2127 32.2074C90.1729 32.9062 88.9158 33.2557 87.4414 33.2557C86.1033 33.2557 84.9272 32.9489 83.913 32.3352C82.8988 31.7216 82.1104 30.8651 81.5479 29.7656C80.9854 28.6577 80.6999 27.3622 80.6914 25.8793V13.3636H86.9428V24.652C86.9513 25.7173 87.2326 26.5568 87.7865 27.1705C88.3405 27.7841 89.0948 28.0909 90.0493 28.0909C90.6715 28.0909 91.2297 27.9545 91.724 27.6818C92.2269 27.4006 92.6232 26.9957 92.913 26.4673C93.2113 25.9304 93.3604 25.2827 93.3604 24.5241ZM108.39 21.8011V33H102.138V13.3636H108.083V16.9688H108.3C108.735 15.767 109.476 14.8253 110.524 14.1435C111.573 13.4531 112.821 13.108 114.27 13.108C115.651 13.108 116.848 13.419 117.863 14.0412C118.885 14.6548 119.678 15.5156 120.24 16.6236C120.811 17.723 121.093 19.0099 121.084 20.4844V33H114.833V21.7116C114.841 20.6207 114.564 19.7685 114.002 19.1548C113.448 18.5412 112.676 18.2344 111.688 18.2344C111.032 18.2344 110.452 18.3793 109.949 18.669C109.455 18.9503 109.071 19.3551 108.799 19.8835C108.534 20.4119 108.398 21.0511 108.39 21.8011ZM132.681 33.3707C130.61 33.3707 128.833 32.9446 127.35 32.0923C125.875 31.2401 124.742 30.0554 123.949 28.5384C123.157 27.0128 122.76 25.2486 122.76 23.2457C122.76 21.2344 123.157 19.4702 123.949 17.9531C124.75 16.4276 125.888 15.2386 127.363 14.3864C128.845 13.5341 130.614 13.108 132.668 13.108C134.483 13.108 136.064 13.4361 137.411 14.0923C138.766 14.7486 139.823 15.6776 140.581 16.8793C141.348 18.0724 141.753 19.4744 141.796 21.0852H135.953C135.834 20.0795 135.493 19.2912 134.931 18.7202C134.377 18.1491 133.652 17.8636 132.757 17.8636C132.033 17.8636 131.398 18.0682 130.853 18.4773C130.307 18.8778 129.881 19.4744 129.574 20.267C129.276 21.0511 129.127 22.0227 129.127 23.1818C129.127 24.3409 129.276 25.321 129.574 26.1222C129.881 26.9148 130.307 27.5156 130.853 27.9247C131.398 28.3253 132.033 28.5256 132.757 28.5256C133.337 28.5256 133.848 28.402 134.291 28.1548C134.743 27.9077 135.114 27.5455 135.404 27.0682C135.693 26.5824 135.877 25.9943 135.953 25.304H141.796C141.736 26.9233 141.331 28.3381 140.581 29.5483C139.84 30.7585 138.796 31.7003 137.449 32.3736C136.111 33.0384 134.522 33.3707 132.681 33.3707ZM149.806 21.8011V33H143.555V6.81818H149.602V16.9688H149.819C150.262 15.7585 150.987 14.8125 151.992 14.1307C153.007 13.4489 154.247 13.108 155.713 13.108C157.093 13.108 158.295 13.4148 159.318 14.0284C160.34 14.6335 161.133 15.4901 161.696 16.598C162.267 17.706 162.548 19.0014 162.539 20.4844V33H156.288V21.7116C156.296 20.6207 156.024 19.7685 155.47 19.1548C154.916 18.5412 154.136 18.2344 153.13 18.2344C152.474 18.2344 151.894 18.3793 151.392 18.669C150.897 18.9503 150.51 19.3551 150.228 19.8835C149.956 20.4119 149.815 21.0511 149.806 21.8011Z" fill="#333129"/>
</g>
<defs>
<clipPath id="clip0_149_2003">
<rect width="165" height="40" fill="white"/>
</clipPath>
</defs>
</svg>
